<?xml version="1.0" encoding="UTF-8"?>
<svg version="1.1" xmlns="http://www.w3.org/2000/svg" width="866" height="805">
<path d="M0 0 C2.92828102 1.33276769 5.04207481 2.68777183 7.50390625 4.7421875 C8.35597656 5.44988281 9.20804687 6.15757813 10.0859375 6.88671875 C11.04886719 7.70527344 12.01179688 8.52382813 13.00390625 9.3671875 C14.17440293 10.35035119 15.34497985 11.33341935 16.515625 12.31640625 C21.97475134 16.92631899 27.37692931 21.524035 32.32472229 26.68894958 C34.01015354 28.37343127 35.76278807 29.91012297 37.57788086 31.45336914 C42.58633068 35.80996835 47.25857003 40.47822514 51.9453125 45.17578125 C52.87182114 46.10133316 53.79832977 47.02688507 54.75291443 47.98048401 C56.70172986 49.92783605 58.64875362 51.87695663 60.59448242 53.82739258 C63.06754486 56.30615145 65.54507158 58.78039181 68.02397251 61.2533102 C70.41686826 63.64168895 72.80590943 66.0339083 75.1953125 68.42578125 C76.51433311 69.74176552 76.51433311 69.74176552 77.86000061 71.08433533 C82.23803763 75.4789087 86.48352428 79.92773181 90.51498413 84.64358521 C92.47028194 86.90707216 94.5242722 89.06786698 96.58349609 91.23632812 C108.38901792 103.72211545 108.38901792 103.72211545 110.00390625 108.3671875 C108.96634884 113.38626602 105.26272356 116.62198089 101.81640625 120.1796875 C100.63062971 121.42754912 99.4457261 122.67624085 98.26171875 123.92578125 C97.69485352 124.52116699 97.12798828 125.11655273 96.54394531 125.72998047 C94.70297662 127.68710413 92.93723131 129.69997819 91.19140625 131.7421875 C88.3501897 135.03940177 85.32195547 138.09458825 82.19140625 141.1171875 C80.36481489 142.99596718 78.67310084 144.90812121 76.97265625 146.8984375 C71.63756838 153.0411826 65.76207157 158.66610579 59.97412109 164.37646484 C58.47146855 165.86078647 56.9720246 167.34829954 55.47265625 168.8359375 C54.59029297 169.70669922 53.70792969 170.57746094 52.79882812 171.47460938 C50.75512357 173.54117712 48.85400132 175.6909863 46.96862793 177.90246582 C42.46666637 183.06246315 37.62689003 187.86906983 32.7734375 192.6953125 C31.75892108 193.70790548 30.74463524 194.72072954 29.7305603 195.73376465 C27.56093531 197.90024908 25.38977186 200.06517516 23.21737671 202.22888184 C19.77600157 205.65663558 16.33853239 209.08828889 12.90161133 212.52050781 C4.98602848 220.42409246 -2.93457801 228.32263631 -10.85523987 236.22113037 C-18.1198166 243.46547982 -25.38330471 250.71091212 -32.6427393 257.96041489 C-36.0531108 261.36583148 -39.46589869 264.76880142 -42.88061523 268.16986084 C-45.01088327 270.29262237 -47.13903505 272.41749613 -49.26664352 274.54292297 C-50.24647708 275.52089884 -51.22716735 276.49801731 -52.20882034 277.47416687 C-57.10129057 282.3400903 -61.84623379 287.25257718 -66.3420105 292.48725891 C-69.21209272 295.74921662 -72.29743578 298.79082838 -75.38085938 301.84960938 C-76.08264816 302.5499379 -76.78443695 303.25026642 -77.50749207 303.97181702 C-79.01772463 305.47827104 -80.52911034 306.98356976 -82.04154968 308.48780823 C-84.44079958 310.87418703 -86.83681763 313.26376966 -89.23205566 315.6541748 C-95.17894147 321.58775625 -101.1312752 327.51586284 -107.08343506 333.44415283 C-112.1230024 338.46393051 -117.16047712 343.48579083 -122.19523621 348.51039124 C-124.54562329 350.85433821 -126.89902245 353.19523128 -129.25256348 355.53601074 C-130.70563432 356.98544605 -132.15856326 358.43502364 -133.61132812 359.88476562 C-134.25776779 360.52603897 -134.90420746 361.16731232 -135.57023621 361.82801819 C-139.33574494 365.59309441 -142.90462826 369.47170528 -146.36435699 373.52013397 C-148.06623067 375.44657938 -149.84915642 377.25469797 -151.68359375 379.0546875 C-154.34927375 381.67233723 -156.73596454 384.38381694 -158.99609375 387.3671875 C-157.65573167 390.32229738 -156.15934548 392.4897413 -153.93359375 394.84375 C-153.31025146 395.50576416 -152.68690918 396.16777832 -152.04467773 396.84985352 C-151.36864502 397.55682373 -150.6926123 398.26379395 -149.99609375 398.9921875 C-149.29492432 399.73202881 -148.59375488 400.47187012 -147.87133789 401.23413086 C-141.76201326 407.64511728 -135.51452583 413.91569985 -129.20117188 420.12548828 C-128.49283203 420.82528809 -127.78449219 421.52508789 -127.0546875 422.24609375 C-126.43907959 422.8501001 -125.82347168 423.45410645 -125.18920898 424.07641602 C-123.34772041 425.99990341 -121.61648816 427.95994363 -119.88368225 429.979599 C-115.96976037 434.46145393 -111.82219848 438.66783981 -107.6015625 442.859375 C-106.79248444 443.6669928 -105.98340637 444.4746106 -105.14981079 445.30670166 C-103.40548555 447.04724285 -101.66000675 448.7866286 -99.91348267 450.52496338 C-97.14459141 453.2810089 -94.37890792 456.04023797 -91.61401367 458.80029297 C-85.74435082 464.65891252 -79.87045366 470.51327819 -73.99609375 476.3671875 C-67.18518189 483.15438832 -60.37597292 489.94328008 -53.57095337 496.73638916 C-50.85493603 499.4459553 -48.1359089 502.15247578 -45.41674805 504.85888672 C-43.74122475 506.53077522 -42.06584296 508.20280556 -40.390625 509.875 C-39.64132721 510.61913147 -38.89202942 511.36326294 -38.12002563 512.12994385 C-33.5380989 516.71141326 -29.21454328 521.45056298 -24.99609375 526.3671875 C-22.90092732 528.71169605 -20.79985767 531.05063227 -18.6953125 533.38671875 C-15.69150495 536.88770824 -14.7491219 538.79820831 -14.99609375 543.3671875 C-21.68551543 544.20989868 -28.26540583 544.57013177 -35.00390625 544.68359375 C-36.08527863 544.70446548 -37.166651 544.72533722 -38.28079224 544.74684143 C-41.89414992 544.81368367 -45.50757004 544.87255506 -49.12109375 544.9296875 C-50.38385132 544.95053406 -51.64660889 544.97138062 -52.94763184 544.99285889 C-149.0630312 546.53916298 -149.0630312 546.53916298 -194.17016602 544.78686523 C-195.05642166 544.75254898 -195.94267731 544.71823273 -196.85578918 544.68287659 C-198.5599245 544.61681042 -200.26401824 544.54966115 -201.96806335 544.48130798 C-206.45558312 544.33430901 -210.79286156 544.44711105 -215.25791931 544.91526794 C-226.18371044 546.05985362 -234.870776 545.89896987 -243.61474609 538.85644531 C-252.89379481 530.81886348 -261.2983337 521.83555669 -269.36662292 512.59744263 C-272.94629915 508.50715093 -276.62262815 504.86121676 -280.7598877 501.3407135 C-285.61282948 497.05783144 -290.11710704 492.38884583 -294.6875 487.80859375 C-295.80258386 486.69418532 -296.91781597 485.57992521 -298.03318787 484.46580505 C-300.35863137 482.14182729 -302.68227886 479.81607286 -305.00463867 477.48901367 C-307.96197278 474.52598299 -310.92377503 471.5674658 -313.88694859 468.61027622 C-316.18719973 466.31366118 -318.48503606 464.01464184 -320.78217888 461.71491814 C-321.87254672 460.62388944 -322.96364055 459.53358573 -324.05551338 458.44406319 C-329.3766461 453.13187652 -334.64502874 447.81847231 -339.50804138 442.07542419 C-342.32882814 438.8372509 -345.43206678 435.87277361 -348.49609375 432.8671875 C-353.53940862 427.8612623 -358.51218753 422.88894168 -362.99609375 417.3671875 C-363.61411865 416.61985352 -363.61411865 416.61985352 -364.24462891 415.85742188 C-381.34424389 395.11539152 -381.34424389 395.11539152 -380.99609375 385.3671875 C-377.29591595 370.52107536 -366.83107007 359.88358688 -356.11328125 349.546875 C-354.34327073 347.72461325 -352.71136732 345.86994965 -351.06640625 343.9375 C-345.17077363 337.1510136 -338.63803804 330.95467322 -332.24804688 324.63964844 C-330.53692068 322.94680762 -328.82896405 321.25081213 -327.12109375 319.5546875 C-326.35514893 318.80119019 -326.35514893 318.80119019 -325.57373047 318.0324707 C-322.93086647 315.40715731 -320.42708582 312.72636869 -318.015625 309.88671875 C-312.85831089 303.93494141 -307.20016485 298.4613803 -301.61740112 292.91333008 C-299.52058159 290.82940917 -297.42702009 288.74226241 -295.33422852 286.65429688 C-290.13863182 281.47198759 -284.93757951 276.29516489 -279.73669434 271.11816406 C-275.33125753 266.73253609 -270.9279279 262.34481243 -266.52731323 257.9543457 C-264.47607926 255.90953987 -262.42183084 253.86779686 -260.36743164 251.82617188 C-259.09636726 250.55874382 -257.82544521 249.29117302 -256.5546875 248.0234375 C-255.99240448 247.4663208 -255.43012146 246.9092041 -254.85079956 246.33520508 C-252.03298589 243.51776063 -249.340434 240.64087903 -246.74481106 237.61674595 C-243.24174453 233.59814834 -239.56746011 229.79823932 -235.79225159 226.03636169 C-235.10179479 225.34434491 -234.41133799 224.65232812 -233.69995826 223.93934113 C-231.40723124 221.64265513 -229.11098218 219.34952478 -226.81469727 217.05639648 C-225.16143448 215.4017774 -223.50838424 213.74694593 -221.85552979 212.09191895 C-217.38061202 207.61245415 -212.90255101 203.13614417 -208.4237721 198.66054034 C-204.20586821 194.44491664 -199.98997667 190.22728164 -195.77394485 186.0097859 C-186.91491151 177.1479062 -178.05282491 168.28908495 -169.18967813 159.43131954 C-161.59728994 151.84339862 -154.00752729 144.25285981 -146.41967773 136.66040039 C-137.59195982 127.82732181 -128.76261019 118.99587949 -119.93067878 110.1670137 C-115.26143666 105.49934853 -110.5928865 100.83099565 -105.92608833 96.16088676 C-101.53790163 91.76980433 -97.14726227 87.38118896 -92.75474548 82.99443817 C-91.14628557 81.38729672 -89.53866899 79.77931072 -87.93197441 78.17040443 C-85.73260179 75.96828434 -83.53014781 73.76929125 -81.32691956 71.57102966 C-80.69742686 70.93930625 -80.06793417 70.30758283 -79.41936594 69.65671629 C-75.68494076 65.93851358 -71.83426901 62.41145669 -67.83359951 58.98087078 C-64.72577871 56.2516067 -61.83651733 53.31095265 -58.93359375 50.3671875 C-58.29800537 49.7278125 -57.66241699 49.0884375 -57.00756836 48.4296875 C-55.00125725 46.41130353 -52.99825374 44.38968874 -50.99609375 42.3671875 C-35.63285116 26.84785972 -35.63285116 26.84785972 -29.70996094 21.8359375 C-27.20726904 19.69118045 -24.84731406 17.40512022 -22.46655273 15.12695312 C-5.40564188 -1.14173922 -5.40564188 -1.14173922 0 0 Z " fill="#5078C1" transform="translate(439.99609375,21.6328125)"/>
<path d="M0 0 C0.88625565 0.03431625 1.77251129 0.06863251 2.68562317 0.10398865 C4.38975848 0.17005482 6.09385223 0.23720409 7.79789734 0.30555725 C12.28541711 0.45255622 16.62269554 0.33975418 21.0877533 -0.12840271 C32.01354442 -1.27298839 40.70060998 -1.11210463 49.44458008 5.93041992 C58.72362879 13.96800175 67.12816768 22.95130854 75.19645691 32.18942261 C78.77613314 36.27971431 82.45246213 39.92564847 86.58972168 43.44615173 C91.44266346 47.72903379 95.94694102 52.3980194 100.51733398 56.97827148 C101.63241784 58.09267992 102.74764996 59.20694003 103.86302185 60.32106018 C106.18846535 62.64503794 108.51211285 64.97079237 110.83447266 67.29785156 C113.79180677 70.26088224 116.75360901 73.21939943 119.71678257 76.17658901 C122.01703371 78.47320406 124.31487004 80.77222339 126.61201286 83.0719471 C127.70238071 84.1629758 128.79347454 85.2532795 129.88534737 86.34280205 C135.20648009 91.65498872 140.47486272 96.96839292 145.33787537 102.71144104 C148.15866212 105.94961434 151.26190076 108.91409162 154.32592773 111.91967773 C159.3692426 116.92560293 164.34202152 121.89792356 168.82592773 127.41967773 C169.23794434 127.91790039 169.64996094 128.41612305 170.07446289 128.92944336 C187.17407788 149.67147371 187.17407788 149.67147371 186.82592773 159.41967773 C183.12574994 174.26578988 172.66090405 184.90327835 161.94311523 195.23999023 C160.17310472 197.06225199 158.5412013 198.91691559 156.89624023 200.84936523 C151.00060761 207.63585163 144.46787202 213.83219201 138.07788086 220.1472168 C136.36675466 221.84005762 134.65879803 223.53605311 132.95092773 225.23217773 C132.44029785 225.73450928 131.92966797 226.23684082 131.40356445 226.75439453 C128.76070045 229.37970793 126.25691981 232.06049654 123.84545898 234.90014648 C118.68814488 240.85192382 113.02999883 246.32548494 107.44723511 251.87353516 C105.35041557 253.95745606 103.25685407 256.04460283 101.1640625 258.13256836 C95.9684658 263.31487765 90.76741349 268.49170034 85.56652832 273.66870117 C81.16109151 278.05432914 76.75776189 282.44205281 72.35714722 286.83251953 C70.30591324 288.87732537 68.25166482 290.91906837 66.19726562 292.96069336 C64.92620125 294.22812141 63.6552792 295.49569221 62.38452148 296.76342773 C61.82223846 297.32054443 61.25995544 297.87766113 60.68063354 298.45166016 C57.86281988 301.26910461 55.17026798 304.1459862 52.57464504 307.17011929 C49.07157852 311.18871689 45.3972941 314.98862591 41.62208557 318.75050354 C40.93162878 319.44252033 40.24117198 320.13453711 39.52979225 320.84752411 C37.23706522 323.14421011 34.94081617 325.43734045 32.64453125 327.73046875 C30.99126847 329.38508784 29.33821822 331.03991931 27.68536377 332.69494629 C23.21044601 337.17441108 18.732385 341.65072106 14.25360608 346.12632489 C10.0357022 350.3419486 5.81981065 354.5595836 1.60377883 358.77707934 C-7.2552545 367.63895904 -16.11734111 376.49778029 -24.98048789 385.35554569 C-32.57287608 392.94346661 -40.16263873 400.53400543 -47.75048828 408.12646484 C-56.57820619 416.95954342 -65.40755582 425.79098575 -74.23948723 434.61985153 C-78.90872935 439.2875167 -83.57727951 443.95586958 -88.24407768 448.62597847 C-92.63226438 453.0170609 -97.02290374 457.40567627 -101.41542053 461.79242706 C-103.02388045 463.39956851 -104.63149702 465.00755451 -106.2381916 466.6164608 C-108.43756422 468.8185809 -110.64001821 471.01757398 -112.84324646 473.21583557 C-113.47273915 473.84755899 -114.10223184 474.4792824 -114.75080007 475.13014895 C-118.48522525 478.84835165 -122.33589701 482.37540854 -126.33656651 485.80599445 C-129.44438731 488.53525854 -132.33364869 491.47591258 -135.23657227 494.41967773 C-135.87216064 495.05905273 -136.50774902 495.69842773 -137.16259766 496.35717773 C-139.16890877 498.3755617 -141.17191228 500.3971765 -143.17407227 502.41967773 C-158.54914314 517.95095398 -158.54914314 517.95095398 -164.45141602 522.9465332 C-168.28446484 526.22439836 -171.88632866 529.77158938 -175.52954102 533.25756836 C-186.9605174 544.0534905 -186.9605174 544.0534905 -192.85766602 545.02905273 C-196.72512708 544.31842385 -198.32026489 543.27632965 -201.23657227 540.66967773 C-202.63842773 539.4437793 -202.63842773 539.4437793 -204.06860352 538.19311523 C-204.56569824 537.74677734 -205.06279297 537.30043945 -205.57495117 536.84057617 C-207.27571538 535.32936278 -209.00673304 533.86021262 -210.74829102 532.39624023 C-216.19042523 527.81327618 -221.56819501 523.24077885 -226.49513245 518.09767151 C-228.18047881 516.4132748 -229.93304515 514.87666484 -231.74804688 513.33349609 C-236.7564967 508.97689688 -241.42873604 504.30864009 -246.11547852 499.61108398 C-247.04198715 498.68553207 -247.96849579 497.75998016 -248.92308044 496.80638123 C-250.87189587 494.85902918 -252.81891964 492.90990861 -254.76464844 490.95947266 C-257.23771088 488.48071379 -259.71523759 486.00647343 -262.19413853 483.53355503 C-264.58703427 481.14517628 -266.97607544 478.75295694 -269.36547852 476.36108398 C-270.68449913 475.04509972 -270.68449913 475.04509972 -272.03016663 473.70252991 C-276.40820365 469.30795654 -280.6536903 464.85913343 -284.68515015 460.14328003 C-286.64044795 457.87979308 -288.69443821 455.71899825 -290.75366211 453.55053711 C-302.55918394 441.06474978 -302.55918394 441.06474978 -304.17407227 436.41967773 C-303.13651486 431.40059922 -299.43288958 428.16488434 -295.98657227 424.60717773 C-294.80079573 423.35931611 -293.61589212 422.11062439 -292.43188477 420.86108398 C-291.58158691 419.96800537 -291.58158691 419.96800537 -290.71411133 419.05688477 C-288.87314263 417.0997611 -287.10739732 415.08688705 -285.36157227 413.04467773 C-282.52035572 409.74746347 -279.49212148 406.69227698 -276.36157227 403.66967773 C-274.53498091 401.79089805 -272.84326685 399.87874403 -271.14282227 397.88842773 C-265.80773439 391.74568264 -259.93223758 386.12075944 -254.14428711 380.41040039 C-252.64163457 378.92607876 -251.14219061 377.43856569 -249.64282227 375.95092773 C-248.76045898 375.08016602 -247.8780957 374.2094043 -246.96899414 373.31225586 C-244.92528959 371.24568811 -243.02416733 369.09587893 -241.13879395 366.88439941 C-236.63683238 361.72440209 -231.79705605 356.9177954 -226.94360352 352.09155273 C-225.92908709 351.07895975 -224.91480126 350.0661357 -223.90072632 349.05310059 C-221.73110132 346.88661615 -219.55993787 344.72169008 -217.38754272 342.5579834 C-213.94616759 339.13022965 -210.5086984 335.69857634 -207.07177734 332.26635742 C-199.1561945 324.36277278 -191.235588 316.46422893 -183.31492615 308.56573486 C-176.05034942 301.32138541 -168.7868613 294.07595312 -161.52742672 286.82645035 C-158.11705521 283.42103375 -154.70426733 280.01806382 -151.28955078 276.61700439 C-149.15928274 274.49424286 -147.03113097 272.3693691 -144.90352249 270.24394226 C-143.92368894 269.2659664 -142.94299867 268.28884793 -141.96134567 267.31269836 C-137.06887544 262.44677494 -132.32393222 257.53428806 -127.82815552 252.29960632 C-124.9580733 249.03764861 -121.87273023 245.99603685 -118.78930664 242.93725586 C-118.08751785 242.23692734 -117.38572906 241.53659882 -116.66267395 240.81504822 C-115.15244138 239.3085942 -113.64105567 237.80329547 -112.12861633 236.29905701 C-109.72936643 233.9126782 -107.33334839 231.52309557 -104.93811035 229.13269043 C-98.99122454 223.19910899 -93.03889081 217.2710024 -87.08673096 211.3427124 C-82.04716362 206.32293472 -77.00968889 201.30107441 -71.97492981 196.276474 C-69.62454272 193.93252703 -67.27114356 191.59163395 -64.91760254 189.25085449 C-63.4645317 187.80141918 -62.01160276 186.3518416 -60.55883789 184.90209961 C-59.58917839 183.94018959 -59.58917839 183.94018959 -58.59992981 182.95884705 C-54.83442108 179.19377083 -51.26553775 175.31515995 -47.80580902 171.26673126 C-46.10393535 169.34028586 -44.3210096 167.53216727 -42.48657227 165.73217773 C-39.82089227 163.11452801 -37.43420148 160.40304829 -35.17407227 157.41967773 C-36.51443435 154.46456786 -38.01082053 152.29712394 -40.23657227 149.94311523 C-41.17158569 148.95009399 -41.17158569 148.95009399 -42.12548828 147.93701172 C-42.801521 147.2300415 -43.47755371 146.52307129 -44.17407227 145.79467773 C-45.22582642 144.68491577 -45.22582642 144.68491577 -46.29882812 143.55273438 C-52.40815276 137.14174795 -58.65564019 130.87116539 -64.96899414 124.66137695 C-66.03150391 123.61167725 -66.03150391 123.61167725 -67.11547852 122.54077148 C-67.73108643 121.93676514 -68.34669434 121.33275879 -68.98095703 120.71044922 C-70.8224456 118.78696183 -72.55367786 116.82692161 -74.28648376 114.80726624 C-78.20040565 110.3254113 -82.34796753 106.11902542 -86.56860352 101.92749023 C-87.37768158 101.11987244 -88.18675964 100.31225464 -89.02035522 99.48016357 C-90.76468047 97.73962239 -92.51015927 96.00023664 -94.25668335 94.26190186 C-97.02557461 91.50585633 -99.7912581 88.74662726 -102.55615234 85.98657227 C-108.4258152 80.12795271 -114.29971236 74.27358704 -120.17407227 68.41967773 C-126.98498413 61.63247692 -133.7941931 54.84358515 -140.59921265 48.05047607 C-143.31522999 45.34090994 -146.03425712 42.63438945 -148.75341797 39.92797852 C-150.42894127 38.25609002 -152.10432305 36.58405968 -153.77954102 34.91186523 C-154.52883881 34.16773376 -155.2781366 33.42360229 -156.05014038 32.65692139 C-160.63206712 28.07545197 -164.95562274 23.33630225 -169.17407227 18.41967773 C-171.2692387 16.07516918 -173.37030835 13.73623297 -175.47485352 11.40014648 C-177.17407227 9.41967773 -177.17407227 9.41967773 -179.17407227 6.41967773 C-178.79907227 3.73217773 -178.79907227 3.73217773 -178.17407227 1.41967773 C-171.85167456 0.50464894 -165.64748615 0.21020149 -159.26391602 0.10327148 C-158.18112869 0.08239975 -157.09834137 0.06152802 -155.98274231 0.0400238 C-152.35909584 -0.02690312 -148.73538639 -0.08572423 -145.11157227 -0.14282227 C-143.21368958 -0.1740921 -143.21368958 -0.1740921 -141.27746582 -0.20599365 C-45.07958371 -1.75122745 -45.07958371 -1.75122745 0 0 Z " fill="#9D5487" transform="translate(629.174072265625,250.580322265625)"/>
</svg>
